PathFileType	4	(X/Y/Z)	Kaydara																																																																																																																									
DataRate	CameraRate	NumFrames	NumMarkers	Units	OrigDataRate	OrigDataStartFrame	OrigNumFrames																																																																																																																					
30	30	9	41	mm	30	94	125																																																																																																																					
Frame#	Time	EMLA_LFHD			EMLA_RFHD			EMLA_LBHD			EMLA_RBHD			EMLA_LFTShould			EMLA_RFTShould			EMLA_LRRShould			EMLA_RRRShould			EMLA_T10			EMLA_STRN			EMLA_TRUN			EMLA_LSHO			EMLA_LUPA			EMLA_LELB			EMLA_LFRM			EMLA_LWRA			EMLA_LWRB			EMLA_LFIN			EMLA_RSHO			EMLA_RUPA			EMLA_RELB			EMLA_RFRM			EMLA_RWRA			EMLA_RWRB			EMLA_RFIN			EMLA_LFWT			EMLA_RFWT			EMLA_LBWT			EMLA_RBWT			EMLA_LTHI			EMLA_LKNE			EMLA_LSHN			EMLA_LANK			EMLA_LHEE			EMLA_LTOE			EMLA_RTHI			EMLA_RKNE			EMLA_RSHN			EMLA_RANK			EMLA_RHEE			EMLA_RTOE		
		X1	Y1	Z1	X2	Y2	Z2	X3	Y3	Z3	X4	Y4	Z4	X5	Y5	Z5	X6	Y6	Z6	X7	Y7	Z7	X8	Y8	Z8	X9	Y9	Z9	X10	Y10	Z10	X11	Y11	Z11	X12	Y12	Z12	X13	Y13	Z13	X14	Y14	Z14	X15	Y15	Z15	X16	Y16	Z16	X17	Y17	Z17	X18	Y18	Z18	X19	Y19	Z19	X20	Y20	Z20	X21	Y21	Z21	X22	Y22	Z22	X23	Y23	Z23	X24	Y24	Z24	X25	Y25	Z25	X26	Y26	Z26	X27	Y27	Z27	X28	Y28	Z28	X29	Y29	Z29	X30	Y30	Z30	X31	Y31	Z31	X32	Y32	Z32	X33	Y33	Z33	X34	Y34	Z34	X35	Y35	Z35	X36	Y36	Z36	X37	Y37	Z37	X38	Y38	Z38	X39	Y39	Z39	X40	Y40	Z40	X41	Y41	Z41
																																																																																																																												
94	3.11	206.04792	1540.64865	522.26173	39.25318	1515.14694	500.82783	236.4101	1553.57758	375.0491	45.5259	1527.52945	348.59539	237.92671	1305.19485	428.11626	91.55137	1288.43048	429.30099	235.68342	1388.7442	293.06086	80.94021	1370.69717	294.92762	180.44231	1222.07542	211.48304	168.86328	1224.37302	452.81197	170.22831	1119.47411	448.19183	359.43657	1349.8909	387.62844	449.35112	1186.22009	387.30934	503.14064	1049.4603	399.87789	457.234	925.35187	463.47355	308.21838	878.45642	559.35249	364.07787	814.09256	547.16103	338.88916	836.45607	610.31639	-25.02773	1331.67831	370.29171	-118.68977	1172.48764	295.16266	-169.12418	1066.37268	218.33891	-186.92776	969.95224	177.39634	-124.35229	778.41431	203.50271	-185.74129	789.56352	141.72113	-188.73289	739.08875	183.35279	284.16916	908.17398	361.43757	49.94903	932.84477	377.01061	233.37938	925.89256	162.54103	58.71751	944.95697	186.49586	287.26273	644.53606	176.14468	332.02286	446.44047	205.70702	296.57312	319.97646	78.96552	272.61784	295.19022	-110.8148	190.43543	306.28027	-180.65517	254.15173	120.62346	-167.03285	17.40639	636.66515	297.32052	0.28728	481.5197	456.51646	70.42543	258.96154	475.13519	51.32739	97.0037	393.25474	113.07477	52.08333	338.96938	76.36023	44.95385	539.56657
95	3.143	209.869	1560.02762	594.93221	43.09635	1534.30573	573.22136	240.25124	1573.80524	447.8651	49.41987	1547.69485	421.08402	243.43559	1327.12723	500.43056	97.04234	1310.11963	502.61269	238.18798	1405.58853	364.07791	84.6845	1388.96576	367.00207	181.22454	1238.47588	286.05194	174.44225	1246.60919	526.51623	175.19159	1141.56792	524.68491	365.43575	1368.57788	455.26562	451.12751	1200.7122	445.78487	496.0323	1061.60378	454.4949	464.56974	928.1472	504.23985	328.28354	850.37743	600.18658	390.19844	795.98923	573.96549	366.24031	802.47673	640.72739	-21.47025	1350.4715	442.74971	-110.27033	1177.05338	392.08424	-159.84265	1059.21631	332.4427	-181.31041	963.83224	300.51844	-119.36879	772.50038	330.36034	-190.00473	782.43462	277.88404	-185.84797	733.14636	320.83164	277.69655	926.55479	440.56549	42.15843	948.53737	450.14854	231.17983	946.56631	241.80092	57.44539	966.75217	261.41756	284.77766	645.83572	288.20387	327.56195	458.06171	350.21862	292.61845	324.6936	234.14328	271.36675	290.00422	45.9088	192.52525	301.57419	-34.20843	242.87327	117.29069	11.56301	8.84153	654.3132	348.90327	3.12386	481.06995	481.45435	70.97862	256.32893	484.34711	52.43395	97.03962	398.68252	113.42311	53.48584	339.19228	77.18752	44.88699	539.28349
96	3.177	216.8911	1577.33063	664.54895	49.4406	1553.97217	644.99985	245.64848	1590.91629	517.03259	54.03696	1567.44431	492.76691	246.98366	1347.12082	572.02599	100.82016	1333.27103	576.70116	238.56253	1420.36041	434.02538	86.23105	1405.58762	438.5701	179.37931	1252.63229	361.03664	177.61938	1268.18977	600.41931	177.0307	1163.11073	599.96792	368.52467	1385.0769	521.96724	448.97526	1214.56375	503.79944	486.55735	1074.89258	506.39977	472.44171	934.16992	538.66314	353.33817	822.56248	625.32852	421.1203	783.40401	588.6441	398.49796	773.13629	655.38689	-19.99322	1369.41528	515.40485	-101.11098	1187.60071	486.47343	-147.48075	1061.11023	442.81094	-168.951	963.88069	422.33322	-109.51671	774.53712	470.10098	-183.29536	782.48734	422.33601	-177.01851	737.08473	469.80186	273.9636	943.01804	518.20702	37.16398	960.26642	524.12518	231.87683	961.58981	318.58721	59.25006	986.18141	337.71133	284.73713	657.836	396.26591	325.42038	476.70341	490.45273	286.2397	328.25077	392.14222	265.00893	268.07512	210.22713	187.93966	266.28342	121.90354	233.28836	101.59881	217.96173	13.95957	672.84286	383.63239	8.41677	481.03149	492.83424	74.98155	256.92228	487.60563	51.85149	99.00761	394.7683	113.7489	54.96114	339.49081	77.67402	44.8847	539.1766
97	3.21	225.10679	1587.37	732.65564	56.87497	1566.13525	717.48947	250.31134	1600.87067	584.50878	57.79491	1579.65408	565.20985	247.91769	1361.95999	642.2998	104.21759	1348.79044	650.73616	237.40776	1428.29987	504.32934	85.19602	1416.04462	511.67904	175.02909	1261.17676	436.16211	180.19812	1282.49008	674.68987	178.48995	1177.45895	675.33798	369.1404	1392.86865	591.09276	443.49678	1223.51234	564.92035	480.57747	1084.16092	559.78859	481.38176	940.75233	571.36311	379.72328	800.88326	639.44183	451.32042	778.96973	595.7077	432.12357	753.31291	659.01535	-19.58467	1383.25012	591.43616	-95.68629	1198.25317	576.35639	-138.23196	1066.08093	547.216	-156.05217	964.29939	539.86591	-95.76203	785.37354	621.08009	-164.4891	784.60175	565.44056	-164.77299	749.53026	621.26446	272.98777	952.85393	596.49525	34.34285	962.75383	597.83012	234.25106	970.36606	397.86018	62.10026	995.28496	413.9838	291.24582	670.39894	500.1025	326.09585	498.17764	619.60136	282.04889	329.86961	551.39374	258.31142	233.15582	383.9666	178.04409	211.08236	298.19788	230.49622	78.90714	432.49077	18.30572	685.55984	422.03709	15.85774	484.23161	501.05019	78.31169	259.79889	488.86379	51.98747	101.87059	398.81901	112.43999	57.70373	340.00053	77.99554	44.93666	539.78455
98	3.243	232.99255	1587.73849	800.78033	64.0687	1568.62366	791.71448	252.67511	1600.64957	651.94542	59.66982	1582.00851	639.4878	249.63696	1364.79202	713.53683	107.09229	1353.30444	724.89349	236.13068	1426.73843	575.97843	83.92333	1416.33499	584.89632	170.24889	1260.02716	511.47858	182.05639	1286.26022	749.71962	179.24915	1181.08223	750.98717	369.95377	1391.17859	661.35155	442.48253	1222.69516	628.61176	479.62547	1083.89046	612.09255	491.65623	944.39789	605.29247	405.96405	785.11757	649.7847	479.56398	779.03069	604.91772	462.24937	739.54865	661.02043	-18.10783	1386.79916	668.15216	-94.17555	1201.89774	666.37993	-134.60807	1067.03934	649.09615	-147.79972	960.28374	657.93655	-80.28568	803.76968	773.69759	-139.22585	785.21324	710.22476	-146.74698	762.35832	770.85915	269.53829	954.10202	677.38861	29.77168	954.18846	669.15321	238.89256	970.90614	478.22044	66.3159	993.10394	487.88609	301.15221	677.21245	599.33781	327.76352	512.74601	735.68451	284.63499	329.20242	704.94995	258.53405	193.43517	567.6339	176.61228	148.64418	491.01292	234.62383	60.59352	656.3652	27.74033	700.97099	461.31588	19.51433	487.6878	506.52225	79.59203	266.3656	492.89043	51.64893	110.29478	400.12634	111.3148	67.09126	341.89655	78.55443	44.31884	540.48965
99	3.277	239.73642	1580.90179	870.57968	70.54021	1562.34512	868.07335	253.75978	1592.45316	721.05057	60.35282	1574.53812	716.02654	253.72618	1354.0155	788.70682	109.20978	1346.474	799.46548	236.2644	1417.09152	649.54681	83.56908	1407.38205	659.09622	169.3351	1249.51431	586.52008	184.13689	1278.89252	825.18791	179.9287	1173.72772	827.50633	372.22824	1381.32553	732.77863	446.10035	1213.95638	689.22981	482.07523	1078.43285	662.68005	502.799	944.87854	640.75287	431.17592	774.06212	662.49626	505.29568	780.6459	618.55034	489.24709	729.91577	665.07477	-16.63314	1379.133	743.49266	-95.30491	1196.05934	758.38203	-139.14335	1059.91035	753.28613	-143.89727	952.34306	778.81363	-60.10938	827.09114	918.55217	-115.43687	790.93559	859.15207	-121.18803	776.93726	921.63612	263.13171	943.24524	758.80615	24.77796	940.65041	736.22345	248.04003	963.29231	558.48576	75.57012	984.58252	558.93856	312.26477	675.12573	694.75555	325.70759	515.84831	839.38416	286.96239	326.64463	852.14012	267.3568	156.31536	760.82047	189.78722	89.03233	698.44864	244.33401	58.65422	884.83238	44.41624	706.48315	503.79269	22.34684	492.38865	533.895	81.53628	271.17023	506.69102	55.58837	120.51211	404.62757	116.4843	80.42089	346.7989	79.54861	43.85437	541.12186
100	3.31	245.69973	1568.92441	943.38425	76.59076	1550.62454	946.83128	255.04681	1578.95844	793.05595	61.0578	1561.24756	795.09499	257.14487	1336.44287	866.5744	110.28461	1328.62396	877.14127	238.00516	1403.0127	727.09854	84.19065	1393.16864	735.61111	170.76773	1234.27879	662.62489	185.95293	1262.81082	901.96381	180.42578	1157.74673	906.34064	375.12119	1365.97107	808.43681	449.6954	1200.61058	749.74014	487.15569	1070.60646	715.74684	513.53676	943.70407	679.99573	454.15634	766.45737	680.04181	526.42853	784.53484	637.71027	513.8324	725.58655	674.63249	-15.27087	1365.48172	820.61928	-96.63906	1185.85327	848.16978	-144.95318	1048.93051	856.05637	-140.75653	946.33614	897.39143	-35.92887	855.55206	1048.00552	-89.19117	802.77962	1001.64841	-91.26877	802.25403	1066.98563	255.43198	927.74994	842.37411	21.70109	929.20731	801.27365	261.76352	952.53647	642.34261	89.6316	974.65584	628.60832	314.33599	665.53703	784.35196	319.75912	510.2367	931.7186	290.5596	328.28899	988.19244	282.39361	138.62912	954.64134	208.73287	52.42389	914.42215	260.39246	78.2794	1103.38882	54.0011	708.75031	558.3736	25.3739	491.56136	566.28681	82.23621	274.78596	527.76619	58.0358	132.07463	414.95701	119.77615	97.58674	354.86111	79.66076	43.48002	542.11945
101	3.343	252.39017	1555.20828	1019.30344	83.38937	1537.23312	1027.80739	257.50078	1562.95227	868.7635	63.55835	1545.68878	876.46111	259.84741	1317.53754	946.5921	111.56664	1309.66629	956.27892	240.83923	1388.73306	808.06137	86.5711	1379.52347	815.52048	173.62638	1220.62408	740.61073	187.69236	1243.62015	980.39528	181.4748	1138.97148	985.92461	378.0946	1350.42007	889.21028	453.40549	1189.68971	817.76451	492.95242	1064.30359	774.52621	522.85816	943.91304	727.60887	472.13787	764.2907	711.28822	542.57439	791.55289	669.96498	533.25531	727.46437	697.12837	-11.54349	1353.41507	901.53984	-97.78879	1177.55821	934.45343	-148.07474	1042.19749	951.0788	-135.59427	946.05774	1005.10513	-15.28131	886.37436	1158.07159	-69.16035	823.93272	1126.71242	-64.83345	836.32668	1192.13585	249.65946	916.12045	927.64633	20.95171	918.19862	869.534	276.39019	935.00259	728.53249	106.08806	959.37645	701.64879	315.83673	646.58966	864.63501	318.85559	493.74493	1020.63286	295.32906	330.65025	1108.00735	294.8773	139.90665	1118.01308	224.15752	44.44176	1097.26845	274.60665	107.92595	1279.40987	68.98392	709.55444	625.25017	28.29934	496.53294	615.12001	83.40778	278.0933	558.27034	63.12447	149.30395	427.23335	126.5326	120.18925	369.3877	80.20078	42.85461	544.26903
102	3.377	260.10368	1541.72684	1097.70691	91.34081	1523.94394	1109.45282	262.34756	1547.86179	947.16179	68.72449	1530.89447	958.43872	264.02422	1302.19406	1027.96906	115.82623	1293.83896	1034.80469	247.42592	1376.90796	890.20889	93.15771	1368.08365	893.87543	179.80856	1209.78706	821.01135	191.06005	1228.3271	1059.96841	184.77081	1123.63548	1064.91608	382.97779	1337.04742	973.29643	459.01485	1182.39922	893.4613	499.26399	1059.8156	841.74461	531.21868	943.52806	787.28172	484.50691	764.0448	757.55058	555.08141	797.22794	720.14153	545.85987	730.08972	738.01193	-3.31273	1346.78268	981.08437	-92.24086	1174.45618	1018.85269	-146.98499	1039.46831	1034.89624	-128.836	947.09381	1094.71497	-4.46759	910.20058	1247.95021	-49.53935	837.89894	1225.72624	-48.69252	860.70518	1288.68713	250.32951	905.32509	1014.76387	23.95937	904.52171	950.02769	286.33131	917.85599	815.58281	115.70566	940.14374	784.11766	323.74638	631.77807	958.3287	322.55955	484.12075	1113.46703	298.64052	326.98154	1208.6142	298.4441	137.09284	1228.396	229.83311	38.23922	1211.8457	271.09863	112.09123	1391.5303	83.16702	698.9547	706.86699	30.95318	488.24993	680.06714	83.63825	278.51818	601.26637	66.51125	168.62911	453.16967	131.70459	149.17991	395.0515	81.12799	41.59925	548.25218
